<svg xmlns="http://www.w3.org/2000/svg" style="display: none;"><symbol id="south-korea" viewBox="0 0 800 800"><title>south-korea</title><path fill="#FFFFFF" d="M116.129,645.161h658.064V154.839H25.807v490.322h38.709c7.128,0,12.903,5.775,12.903,12.903h25.806 C103.226,650.937,109.001,645.161,116.129,645.161z M229.182,568.648c-2.032,1.174-4.251,1.731-6.44,1.731 c-4.459,0-8.796-2.314-11.186-6.454l-15.269-26.446c-3.563-6.171-1.448-14.063,4.723-17.626c6.168-3.56,14.064-1.45,17.626,4.723 l15.269,26.446C237.468,557.194,235.353,565.086,229.182,568.648z M190.269,514.135c-4.459,0-8.796-2.313-11.186-6.453 l-15.269-26.446c-3.563-6.171-1.449-14.063,4.722-17.626c6.168-3.562,14.065-1.45,17.626,4.723l15.269,26.446 c3.563,6.171,1.448,14.063-4.723,17.626C194.677,513.577,192.458,514.135,190.269,514.135z M258.98,551.444 c-2.032,1.174-4.251,1.73-6.44,1.73c-4.459,0-8.796-2.313-11.186-6.453l-47.742-82.69c-3.563-6.172-1.449-14.063,4.722-17.626 c6.169-3.563,14.065-1.45,17.626,4.723l47.742,82.69C267.267,539.989,265.151,547.881,258.98,551.444z M547.46,553.175 c-2.188,0-4.408-0.558-6.439-1.73c-6.172-3.563-8.286-11.455-4.723-17.626l15.269-26.446c3.562-6.173,11.451-8.286,17.626-4.723 c6.171,3.563,8.285,11.455,4.723,17.626l-15.269,26.446C556.256,550.861,551.919,553.175,547.46,553.175z M568.771,477.574 l15.269-26.446c3.562-6.175,11.452-8.287,17.626-4.723c6.172,3.563,8.286,11.454,4.723,17.626l-15.269,26.446 c-2.39,4.14-6.727,6.453-11.187,6.453c-2.188,0-4.407-0.558-6.439-1.73C567.322,491.637,565.206,483.745,568.771,477.574z M573.493,304.8c6.17-3.56,14.064-1.448,17.626,4.723l15.269,26.446c3.563,6.171,1.449,14.063-4.723,17.626 c-2.031,1.173-4.251,1.731-6.439,1.731c-4.459,0-8.796-2.314-11.187-6.454l-15.269-26.446 C565.206,316.255,567.322,308.363,573.493,304.8z M613.838,468.332c3.561-6.173,11.449-8.287,17.625-4.723 c6.172,3.563,8.286,11.455,4.723,17.626l-15.269,26.446c-2.39,4.14-6.727,6.453-11.187,6.453c-2.188,0-4.407-0.558-6.439-1.73 c-6.171-3.563-8.285-11.455-4.723-17.626L613.838,468.332z M577.258,570.379c-2.188,0-4.408-0.557-6.439-1.73 c-6.172-3.563-8.286-11.454-4.723-17.626l15.269-26.446c3.56-6.173,11.449-8.284,17.626-4.723 c6.171,3.563,8.285,11.455,4.723,17.626l-15.27,26.446C586.056,568.065,581.717,570.379,577.258,570.379z M633.513,554.684 l-15.27,26.446c-2.39,4.14-6.727,6.454-11.186,6.454c-2.188,0-4.408-0.558-6.44-1.731c-6.171-3.563-8.285-11.454-4.723-17.625 l15.27-26.447c3.562-6.174,11.449-8.283,17.626-4.723C634.961,540.621,637.077,548.513,633.513,554.684z M665.985,498.439 l-15.269,26.446c-2.39,4.14-6.728,6.453-11.187,6.453c-2.188,0-4.407-0.557-6.439-1.73c-6.171-3.563-8.286-11.454-4.723-17.626 l15.269-26.446c3.562-6.173,11.449-8.285,17.626-4.723C667.434,484.377,669.55,492.269,665.985,498.439z M650.717,275.114 l15.269,26.446c3.563,6.171,1.448,14.063-4.723,17.625c-2.031,1.173-4.251,1.731-6.439,1.731c-4.459,0-8.797-2.314-11.187-6.453 l-15.269-26.447c-3.563-6.171-1.448-14.063,4.723-17.625C639.259,266.832,647.155,268.943,650.717,275.114z M600.617,214.147 c6.168-3.563,14.063-1.45,17.626,4.723l15.27,26.447c3.563,6.171,1.448,14.063-4.723,17.625c-2.032,1.173-4.252,1.731-6.44,1.731 c-4.459,0-8.796-2.314-11.186-6.454l-15.27-26.446C592.332,225.602,594.446,217.71,600.617,214.147z M570.818,231.352 c6.167-3.562,14.064-1.45,17.625,4.723l47.742,82.69c3.563,6.171,1.449,14.063-4.723,17.626c-2.031,1.173-4.251,1.73-6.439,1.73 c-4.459,0-8.797-2.314-11.186-6.453l-47.742-82.691C562.532,242.806,564.646,234.915,570.818,231.352z M541.021,248.556 c6.169-3.562,14.064-1.45,17.626,4.723l15.269,26.446c3.563,6.171,1.448,14.063-4.723,17.626c-2.032,1.173-4.251,1.73-6.439,1.73 c-4.46,0-8.797-2.313-11.187-6.453l-15.269-26.446C532.732,260.01,534.849,252.119,541.021,248.556z M400,258.064 c78.263,0,141.936,63.673,141.936,141.936c0,78.263-63.673,141.936-141.936,141.936S258.064,478.263,258.064,400 C258.064,321.738,321.737,258.064,400,258.064z M258.98,248.556c6.171,3.563,8.286,11.455,4.722,17.626l-47.742,82.69 c-2.39,4.14-6.727,6.454-11.186,6.454c-2.188,0-4.408-0.558-6.44-1.731c-6.171-3.563-8.286-11.455-4.723-17.625l47.742-82.691 C244.915,247.105,252.805,244.991,258.98,248.556z M229.182,231.352c6.171,3.563,8.286,11.455,4.722,17.625l-47.742,82.691 c-2.39,4.139-6.727,6.453-11.186,6.453c-2.188,0-4.408-0.557-6.44-1.73c-6.171-3.563-8.286-11.455-4.722-17.626l47.742-82.69 C215.116,229.901,223.005,227.787,229.182,231.352z M134.015,301.561l47.742-82.691c3.562-6.173,11.452-8.287,17.626-4.723 c6.171,3.563,8.286,11.455,4.723,17.626l-47.742,82.691c-2.39,4.139-6.727,6.453-11.187,6.453c-2.188,0-4.408-0.558-6.439-1.731 C132.566,315.623,130.45,307.731,134.015,301.561z M138.737,480.813c6.169-3.561,14.064-1.45,17.626,4.723l47.742,82.691 c3.563,6.171,1.449,14.063-4.723,17.625c-2.032,1.174-4.251,1.731-6.439,1.731c-4.459,0-8.796-2.314-11.187-6.454l-47.742-82.69 C130.45,492.269,132.566,484.377,138.737,480.813z"/><path d="M787.097,129.032H12.903C5.775,129.032,0,134.808,0,141.936v516.129c0,7.128,5.775,12.903,12.903,12.903h51.613 c7.128,0,12.903-5.775,12.903-12.903s-5.775-12.903-12.903-12.903H25.807V154.839h748.387v490.322H116.129 c-7.127,0-12.903,5.775-12.903,12.903s5.776,12.903,12.903,12.903h670.968c7.128,0,12.903-5.775,12.903-12.903V141.936 C800,134.808,794.225,129.032,787.097,129.032z"/><path fill="#103B9B" d="M400,517.129c-64.585,0-117.129-52.544-117.129-117.129v-1h234.258v1 C517.129,464.585,464.585,517.129,400,517.129z"/><path fill="#103B9B" d="M400,516.129c64.034,0,116.129-52.095,116.129-116.129H283.871 C283.871,464.034,335.966,516.129,400,516.129z"/><path fill="#ED1F34" d="M282.871,401v-1c0-64.585,52.544-117.129,117.129-117.129S517.129,335.415,517.129,400v1H282.871z"/><path fill="#ED1F34" d="M516.129,400c0-64.034-52.095-116.129-116.129-116.129S283.871,335.966,283.871,400H516.129z"/><path d="M400,541.936c78.263,0,141.936-63.673,141.936-141.936c0-78.262-63.673-141.936-141.936-141.936 S258.064,321.738,258.064,400C258.064,478.263,321.737,541.936,400,541.936z M400,283.871c64.034,0,116.129,52.095,116.129,116.129 S464.034,516.129,400,516.129S283.871,464.034,283.871,400S335.966,283.871,400,283.871z"/><path d="M138.737,319.186c2.033,1.173,4.251,1.731,6.439,1.731c4.459,0,8.796-2.314,11.187-6.453l47.742-82.691 c3.563-6.171,1.449-14.063-4.723-17.626c-6.174-3.564-14.064-1.45-17.626,4.723l-47.742,82.691 C130.45,307.731,132.566,315.623,138.737,319.186z"/><path d="M198.334,353.595c2.034,1.173,4.251,1.731,6.44,1.731c4.459,0,8.796-2.314,11.186-6.454l47.742-82.69 c3.563-6.171,1.449-14.063-4.722-17.626c-6.175-3.563-14.065-1.45-17.626,4.723l-47.742,82.69 C190.049,342.14,192.164,350.032,198.334,353.595z"/><path d="M168.537,336.391c2.034,1.173,4.251,1.73,6.44,1.73c4.459,0,8.796-2.314,11.186-6.453l47.742-82.691 c3.563-6.171,1.449-14.063-4.722-17.625c-6.176-3.563-14.066-1.451-17.626,4.723l-47.742,82.69 C160.251,324.936,162.366,332.828,168.537,336.391z"/><path d="M628.79,537.058c-6.177-3.561-14.064-1.451-17.626,4.723l-15.269,26.447c-3.563,6.171-1.449,14.063,4.722,17.625 c2.034,1.174,4.252,1.731,6.44,1.731c4.459,0,8.796-2.314,11.186-6.454l15.27-26.446 C637.077,548.513,634.961,540.621,628.79,537.058z"/><path d="M661.263,480.813c-6.176-3.563-14.064-1.45-17.626,4.723l-15.269,26.446c-3.563,6.172-1.448,14.063,4.723,17.626 c2.033,1.174,4.251,1.73,6.439,1.73c4.46,0,8.797-2.313,11.187-6.453l15.269-26.446 C669.55,492.269,667.434,484.377,661.263,480.813z"/><path d="M569.192,502.649c-6.175-3.563-14.064-1.45-17.626,4.723l-15.269,26.446c-3.563,6.171-1.449,14.063,4.723,17.626 c2.033,1.174,4.251,1.73,6.439,1.73c4.459,0,8.796-2.313,11.187-6.453l15.269-26.446 C577.478,514.104,575.363,506.213,569.192,502.649z"/><path d="M573.493,495.2c2.034,1.173,4.251,1.73,6.439,1.73c4.46,0,8.797-2.313,11.187-6.453l15.269-26.446 c3.563-6.172,1.449-14.063-4.723-17.626c-6.174-3.564-14.064-1.452-17.625,4.723l-15.27,26.446 C565.206,483.745,567.322,491.637,573.493,495.2z"/><path d="M598.99,519.854c-6.177-3.562-14.066-1.45-17.626,4.723l-15.269,26.446c-3.563,6.172-1.449,14.063,4.723,17.626 c2.033,1.174,4.251,1.731,6.439,1.731c4.459,0,8.797-2.314,11.187-6.454l15.269-26.446 C607.275,531.309,605.161,523.417,598.99,519.854z"/><path d="M603.291,512.404c2.034,1.173,4.251,1.73,6.439,1.73c4.46,0,8.797-2.313,11.187-6.453l15.269-26.446 c3.563-6.171,1.449-14.063-4.723-17.626c-6.176-3.564-14.064-1.45-17.625,4.723l-15.27,26.446 C595.006,500.949,597.12,508.841,603.291,512.404z"/><path d="M611.164,258.219c2.39,4.14,6.727,6.454,11.187,6.454c2.188,0,4.409-0.558,6.439-1.731 c6.171-3.563,8.285-11.455,4.723-17.625l-15.27-26.447c-3.563-6.173-11.458-8.286-17.625-4.723 c-6.172,3.563-8.286,11.455-4.723,17.626L611.164,258.219z"/><path d="M628.368,288.017l15.269,26.447c2.39,4.139,6.728,6.453,11.187,6.453c2.188,0,4.409-0.558,6.439-1.731 c6.171-3.563,8.286-11.455,4.723-17.625l-15.269-26.446c-3.562-6.171-11.458-8.282-17.626-4.723 C626.92,273.955,624.805,281.846,628.368,288.017z"/><path d="M551.566,292.628c2.39,4.14,6.727,6.453,11.187,6.453c2.188,0,4.409-0.557,6.439-1.73 c6.171-3.563,8.285-11.455,4.723-17.626l-15.269-26.446c-3.562-6.173-11.457-8.284-17.626-4.723 c-6.172,3.563-8.286,11.455-4.723,17.626L551.566,292.628z"/><path d="M584.039,348.872c2.391,4.14,6.728,6.454,11.187,6.454c2.188,0,4.409-0.558,6.439-1.731 c6.172-3.563,8.286-11.455,4.723-17.625l-15.269-26.447c-3.562-6.171-11.456-8.282-17.626-4.723 c-6.171,3.563-8.285,11.455-4.723,17.626L584.039,348.872z"/><path d="M613.838,331.668c2.39,4.139,6.727,6.453,11.186,6.453c2.188,0,4.41-0.557,6.439-1.73 c6.172-3.563,8.286-11.455,4.723-17.626l-47.741-82.69c-3.562-6.173-11.458-8.284-17.626-4.723 c-6.172,3.563-8.286,11.455-4.723,17.625L613.838,331.668z"/><path d="M181.756,581.13c2.39,4.14,6.727,6.454,11.187,6.454c2.188,0,4.409-0.558,6.439-1.731 c6.171-3.563,8.286-11.454,4.723-17.625l-47.742-82.691c-3.562-6.173-11.457-8.283-17.626-4.723 c-6.171,3.563-8.286,11.455-4.723,17.626L181.756,581.13z"/><path d="M215.96,451.128c-3.562-6.173-11.457-8.286-17.626-4.723c-6.171,3.563-8.286,11.454-4.723,17.626l47.742,82.69 c2.39,4.14,6.727,6.453,11.186,6.453c2.188,0,4.41-0.558,6.44-1.73c6.171-3.563,8.285-11.455,4.722-17.626L215.96,451.128z"/><path d="M218.636,524.576c-3.562-6.173-11.458-8.282-17.626-4.723c-6.171,3.563-8.286,11.455-4.723,17.626l15.269,26.446 c2.39,4.14,6.727,6.454,11.186,6.454c2.188,0,4.41-0.558,6.44-1.731c6.171-3.563,8.285-11.454,4.722-17.626L218.636,524.576z"/><path d="M201.432,494.778l-15.269-26.446c-3.562-6.173-11.458-8.284-17.626-4.723c-6.171,3.563-8.286,11.455-4.722,17.626 l15.269,26.446c2.39,4.14,6.727,6.453,11.186,6.453c2.188,0,4.41-0.558,6.44-1.73C202.88,508.841,204.995,500.949,201.432,494.778z "/></symbol><symbol id="vietnam" viewBox="0 0 800 800"><title>vietnam</title><path fill="#ED1F34" d="M24.807,646.161v-91.322c0-6.563-5.34-11.903-11.903-11.903h-1v-27.807h1 c6.563,0,11.903-5.34,11.903-11.903V153.839h750.387v492.322H24.807z M477.358,539.011c1.935,1.259,4.18,1.925,6.492,1.925 c2.528,0,4.947-0.787,6.995-2.274c3.964-2.88,5.772-7.99,4.5-12.719l-23.952-89.123l71.763-58.024 c3.808-3.078,5.349-8.275,3.836-12.933c-1.513-4.659-5.815-7.958-10.707-8.21l-92.16-4.761l-33.009-86.18 c-1.751-4.573-6.219-7.645-11.116-7.645c-4.898,0-9.365,3.072-11.116,7.645l-33.009,86.18l-92.161,4.761 c-4.891,0.252-9.193,3.552-10.707,8.21c-1.513,4.658,0.028,9.855,3.836,12.933l71.763,58.024l-23.952,89.123 c-1.272,4.729,0.536,9.84,4.5,12.718c2.048,1.487,4.468,2.273,6.998,2.273c2.309,0,4.553-0.665,6.49-1.924L400,488.69 L477.358,539.011z"/><path fill="#ED1F34" d="M25.807,554.839v90.322h748.387V154.839H25.807v348.387c0,7.128-5.776,12.903-12.903,12.903v25.807 C20.031,541.936,25.807,547.711,25.807,554.839z M252.057,365.554c1.652-5.084,6.268-8.625,11.606-8.9l91.511-4.728l32.776-85.572 c1.911-4.991,6.703-8.287,12.05-8.287s10.139,3.296,12.05,8.287l32.776,85.572l91.511,4.728c5.341,0.275,9.955,3.816,11.606,8.9 c1.651,5.083-0.002,10.66-4.158,14.02l-71.257,57.614l23.783,88.495c1.389,5.161-0.553,10.646-4.878,13.787 c-2.257,1.64-4.917,2.466-7.583,2.466c-2.445,0-4.894-0.691-7.037-2.087L400,489.884l-76.813,49.965 c-4.483,2.913-10.295,2.763-14.62-0.379c-4.325-3.141-6.267-8.626-4.878-13.787l23.783-88.495l-71.257-57.614 C252.059,376.213,250.405,370.637,252.057,365.554z"/><path d="M787.097,129.032H12.903C5.775,129.032,0,134.808,0,141.936v361.29c0,7.128,5.775,12.903,12.903,12.903 c7.127,0,12.903-5.775,12.903-12.903V154.839h748.387v490.322H25.807v-90.322c0-7.128-5.776-12.903-12.903-12.903 C5.775,541.936,0,547.711,0,554.839v103.226c0,7.128,5.775,12.903,12.903,12.903h774.193c7.128,0,12.903-5.775,12.903-12.903 V141.936C800,134.808,794.225,129.032,787.097,129.032z"/><path fill="#FFE000" d="M406.49,464.513c-1.936-1.259-4.181-1.925-6.492-1.925c-2.311,0-4.555,0.666-6.491,1.925l-57.798,37.596 l17.896-66.588c1.222-4.542-0.353-9.388-4.01-12.345l-53.616-43.352l68.857-3.557c4.697-0.244,8.82-3.239,10.501-7.631L400,304.248 l24.658,64.39c1.682,4.393,5.805,7.388,10.503,7.63l68.857,3.557l-53.616,43.352c-3.657,2.958-5.231,7.803-4.011,12.345 l17.896,66.588L406.49,464.513z"/><path fill="#FFE000" d="M350.223,422.398c3.969,3.208,5.673,8.454,4.348,13.382l-17.218,64.066l55.609-36.172 c2.139-1.392,4.588-2.087,7.036-2.087s4.898,0.695,7.037,2.087l55.609,36.172l-17.219-64.066 c-1.324-4.928,0.381-10.174,4.348-13.382l51.586-41.71l-66.25-3.422c-5.098-0.263-9.561-3.506-11.385-8.271L400,307.043 l-23.729,61.951c-1.825,4.765-6.286,8.007-11.384,8.271l-66.25,3.422L350.223,422.398z"/><path d="M256.215,379.573l71.257,57.614l-23.783,88.495c-1.389,5.161,0.553,10.646,4.878,13.787s10.137,3.292,14.62,0.379 L400,489.884l76.813,49.965c2.144,1.396,4.592,2.087,7.037,2.087c2.666,0,5.328-0.824,7.583-2.466 c4.325-3.141,6.267-8.626,4.878-13.787l-23.783-88.495l71.257-57.614c4.156-3.36,5.81-8.936,4.158-14.02 c-1.651-5.084-6.268-8.625-11.606-8.9l-91.511-4.728l-32.776-85.572c-1.911-4.991-6.703-8.287-12.05-8.287 s-10.139,3.296-12.05,8.287l-32.776,85.572l-91.511,4.728c-5.34,0.275-9.954,3.816-11.606,8.9 C250.405,370.637,252.059,376.213,256.215,379.573z M376.271,368.995L400,307.043l23.729,61.951 c1.825,4.765,6.286,8.007,11.384,8.271l66.25,3.422l-51.585,41.71c-3.969,3.208-5.673,8.454-4.348,13.382l17.218,64.066 l-55.609-36.172c-2.139-1.392-4.588-2.087-7.036-2.087s-4.898,0.695-7.037,2.087l-55.609,36.172l17.219-64.066 c1.324-4.928-0.381-10.174-4.348-13.382l-51.586-41.71l66.251-3.422C369.985,377.001,374.446,373.758,376.271,368.995z"/></symbol><symbol id="hong-kong" viewBox="0 0 800 800"><title>hong-kong</title><path fill="#ED1F34" d="M24.807,646.161V153.839h607.451c6.563,0,11.903-5.34,11.903-11.903v-1h27.807v1 c0,6.563,5.34,11.903,11.903,11.903h91.322v492.322H24.807z M476.637,574.556c1.842,2.534,4.674,4.27,7.77,4.76 c0.609,0.098,1.234,0.147,1.861,0.147c2.53,0,4.949-0.786,6.996-2.274c33.705-24.491,41.203-71.837,16.713-105.542 c-14.169-19.507-37.039-31.152-61.18-31.152c-16.024,0-31.364,4.992-44.36,14.436c-2.573,1.869-4.264,4.629-4.761,7.77 c-0.498,3.142,0.258,6.287,2.126,8.857l14.233,19.592l-0.19,0.505c-5.587,14.771-3.362,31.243,5.95,44.062 c8.786,12.091,22.967,19.31,37.934,19.312c0.709,0,1.418-0.016,2.124-0.05l0.54-0.026L476.637,574.556z M323.84,455.37 c-14.962,0-29.139,7.22-37.924,19.313c-9.311,12.815-11.536,29.287-5.95,44.062l0.19,0.505l-14.233,19.592 c-1.869,2.572-2.624,5.718-2.127,8.857c0.499,3.142,2.19,5.9,4.762,7.77c12.995,9.442,28.334,14.434,44.358,14.434 c24.137,0,47.009-11.646,61.182-31.151c11.862-16.327,16.657-36.298,13.502-56.234c-3.156-19.933-13.888-37.443-30.217-49.307 c-2.048-1.489-4.464-2.276-6.986-2.276c-3.804,0-7.407,1.835-9.64,4.909l-14.242,19.603l-0.539-0.025 C325.262,455.387,324.551,455.37,323.84,455.37z M231.09,326.819c-5.169,0-9.716,3.307-11.315,8.229 c-6.238,19.192-4.626,39.666,4.537,57.651c9.164,17.982,24.782,31.321,43.975,37.559c7.58,2.464,15.44,3.714,23.361,3.715 c32.824,0,61.697-20.988,71.849-52.228c0.983-3.023,0.729-6.248-0.714-9.081c-1.444-2.833-3.904-4.935-6.928-5.917l-23.032-7.484 l-0.143-0.521c-4.164-15.235-15.646-27.253-30.712-32.148c-4.697-1.527-9.569-2.301-14.48-2.301 c-10.597,0-20.987,3.645-29.257,10.262l-0.421,0.337l-23.037-7.485C233.575,327.017,232.336,326.819,231.09,326.819z M478.094,417.383c8.27,6.618,18.66,10.263,29.258,10.263c4.91,0,9.781-0.774,14.479-2.302 c15.067-4.896,26.549-16.913,30.713-32.148l0.143-0.521l23.03-7.484c2.98-0.969,5.506-3.126,6.928-5.917 c1.444-2.836,1.697-6.06,0.712-9.079c-10.147-31.241-39.021-52.23-71.847-52.23c-7.916,0-15.776,1.25-23.363,3.715 c-39.622,12.874-61.383,55.584-48.51,95.21c0.984,3.025,3.085,5.485,5.917,6.927c1.665,0.849,3.534,1.297,5.405,1.297 c1.251,0,2.488-0.196,3.678-0.582l23.036-7.486L478.094,417.383z M414.333,220.537c-41.664,0-75.56,33.896-75.56,75.559 s33.896,75.559,75.56,75.559c6.563,0,11.903-5.34,11.903-11.903v-24.216l0.451-0.296c13.203-8.667,21.085-23.301,21.085-39.144 c0-15.841-7.882-30.474-21.085-39.143l-0.451-0.296V232.44C426.236,225.877,420.896,220.537,414.333,220.537z"/><path fill="#ED1F34" d="M632.258,154.839H25.807v490.322h748.387V154.839h-90.322c-7.128,0-12.903-5.775-12.903-12.903h-25.807 C645.161,149.063,639.386,154.839,632.258,154.839z M414.333,219.537c7.128,0,12.903,5.775,12.903,12.903v23.677 c13.311,8.74,21.536,23.633,21.536,39.979c0,16.346-8.224,31.24-21.536,39.979v23.677c0,7.127-5.775,12.903-12.903,12.903 c-42.214,0-76.56-34.345-76.56-76.559C337.773,253.882,372.119,219.537,414.333,219.537z M223.42,393.153 c-9.284-18.221-10.918-38.966-4.597-58.414c2.202-6.778,9.481-10.488,16.258-8.284l22.524,7.319 c8.42-6.737,18.925-10.481,29.882-10.481c5.013,0,9.989,0.79,14.789,2.35c15.546,5.051,27.169,17.474,31.368,32.836l22.519,7.317 c6.777,2.202,10.486,9.483,8.284,16.258c-10.285,31.651-39.541,52.918-72.798,52.918c-0.001,0,0,0-0.001,0 c-8.021-0.001-15.985-1.266-23.67-3.764C248.528,424.888,232.706,411.372,223.42,393.153z M374.906,539.339 c-14.361,19.765-37.535,31.563-61.991,31.563c-16.235,0-31.778-5.057-44.946-14.625c-2.769-2.012-4.625-5.041-5.162-8.422 c-0.535-3.379,0.294-6.833,2.306-9.602l13.917-19.155c-5.631-14.896-3.53-31.78,6.077-45.003 c9.398-12.938,24.899-20.417,40.915-19.675l13.925-19.166c4.188-5.765,12.257-7.047,18.023-2.854 c16.544,12.019,27.419,29.763,30.617,49.959C391.783,502.56,386.925,522.796,374.906,539.339z M493.852,577.997 c-2.218,1.612-4.876,2.466-7.584,2.466c-0.673,0-1.346-0.052-2.018-0.16c-3.381-0.535-6.411-2.392-8.422-5.159l-13.927-19.168 c-0.723,0.035-1.447,0.051-2.17,0.051c-0.002,0-0.002,0-0.003,0c-15.286-0.002-29.769-7.374-38.742-19.724 c-9.609-13.227-11.71-30.109-6.077-45.003l-13.916-19.155c-2.012-2.767-2.841-6.221-2.306-9.602s2.392-6.41,5.161-8.422 c13.17-9.57,28.712-14.627,44.948-14.627c24.457,0,47.632,11.799,61.988,31.564C535.6,505.21,528.004,553.182,493.852,577.997z M583.535,379.728c-1.553,3.049-4.256,5.356-7.51,6.414l-22.517,7.317c-4.199,15.361-15.823,27.785-31.368,32.836 c-4.801,1.561-9.777,2.351-14.789,2.351c-10.958,0-21.464-3.744-29.883-10.481l-22.523,7.319c-3.25,1.056-6.796,0.779-9.846-0.774 c-3.051-1.554-5.355-4.256-6.414-7.51c-13.044-40.15,9.005-83.425,49.152-96.47c7.688-2.498,15.651-3.764,23.672-3.764 c33.26,0,62.516,21.266,72.798,52.92C585.368,373.137,585.089,376.678,583.535,379.728z"/><path d="M787.097,129.032H683.871c-7.128,0-12.903,5.775-12.903,12.903s5.775,12.903,12.903,12.903h90.322v490.322H25.807V154.839 h606.451c7.128,0,12.903-5.775,12.903-12.903s-5.775-12.903-12.903-12.903H12.903C5.777,129.032,0,134.808,0,141.936v516.129 c0,7.128,5.777,12.903,12.903,12.903h774.193c7.128,0,12.903-5.775,12.903-12.903V141.936 C800,134.808,794.225,129.032,787.097,129.032z"/><path fill="#FFFFFF" d="M401.43,345.189v-16.811c0-5.209,3.133-9.91,7.943-11.912c8.256-3.438,13.591-11.434,13.591-20.368 s-5.335-16.929-13.591-20.367c-4.811-2.002-7.943-6.703-7.943-11.912v-16.812c-21.757,5.722-37.85,25.562-37.85,49.091 C363.58,319.626,379.673,339.465,401.43,345.189z"/><path d="M414.333,372.655c7.128,0,12.903-5.775,12.903-12.903v-23.677c13.311-8.74,21.536-23.633,21.536-39.979 c0-16.346-8.224-31.239-21.536-39.979V232.44c0-7.128-5.775-12.903-12.903-12.903c-42.214,0-76.56,34.345-76.56,76.559 C337.773,338.311,372.119,372.655,414.333,372.655z M401.43,247.006v16.812c0,5.21,3.133,9.91,7.943,11.913 c8.258,3.438,13.591,11.432,13.591,20.366s-5.336,16.931-13.591,20.368c-4.811,2.003-7.943,6.703-7.943,11.913v16.81 c-21.757-5.722-37.85-25.562-37.85-49.091C363.58,272.568,379.673,252.728,401.43,247.006z"/><path fill="#FFFFFF" d="M275.95,406.663c5.108,1.66,10.39,2.5,15.697,2.501c17.613,0,33.533-8.999,42.699-23.325l-16.002-5.199 c-4.955-1.61-8.456-6.044-8.874-11.236c-0.717-8.914-6.672-16.456-15.169-19.219c-2.223-0.723-4.514-1.087-6.814-1.087 c-6.441,0-12.549,2.814-16.755,7.72c-3.391,3.957-8.828,5.488-13.784,3.874l-16.005-5.199c-0.525,8.892,1.319,17.798,5.469,25.944 C252.569,393.514,263.059,402.475,275.95,406.663z"/><path d="M291.647,434.972C291.649,434.972,291.647,434.972,291.647,434.972c33.259,0,62.515-21.267,72.8-52.919 c2.202-6.775-1.505-14.056-8.284-16.258l-22.519-7.317c-4.197-15.362-15.822-27.785-31.368-32.836 c-4.802-1.56-9.777-2.35-14.789-2.35c-10.958,0-21.462,3.744-29.882,10.481l-22.524-7.319c-6.776-2.202-14.056,1.505-16.258,8.284 c-6.319,19.448-4.687,40.192,4.597,58.414c9.283,18.221,25.108,31.735,44.556,38.054 C275.663,433.705,283.626,434.97,291.647,434.972z M240.944,355.493l16.005,5.199c4.957,1.614,10.393,0.083,13.784-3.874 c4.207-4.907,10.314-7.72,16.755-7.72c2.3,0,4.593,0.365,6.814,1.087c8.497,2.761,14.451,10.305,15.169,19.219 c0.418,5.194,3.919,9.627,8.874,11.236l16.002,5.199c-9.167,14.324-25.088,23.326-42.7,23.326 c-5.308-0.002-10.589-0.842-15.697-2.502c-12.893-4.188-23.382-13.149-29.536-25.227 C242.264,373.291,240.42,364.384,240.944,355.493z"/><path fill="#FFFFFF" d="M363.095,486.4c-1.43-9.029-5.173-17.318-10.824-24.203l-9.893,13.611 c-3.063,4.216-8.354,6.175-13.429,4.969c-1.665-0.396-3.382-0.599-5.104-0.599c-7.158,0-13.668,3.313-17.862,9.086 c-5.253,7.229-5.635,16.833-0.976,24.468c2.715,4.447,2.487,10.091-0.575,14.306l-9.891,13.613 c5.812,2.271,12.012,3.444,18.373,3.444c16.223,0,31.592-7.822,41.112-20.924C361.996,513.204,365.217,499.79,363.095,486.4z"/><path d="M357.967,432.402c-5.768-4.192-13.836-2.909-18.023,2.854l-13.926,19.166c-16.015-0.744-31.514,6.736-40.915,19.675 c-9.607,13.225-11.708,30.107-6.077,45.003l-13.917,19.155c-2.011,2.768-2.841,6.223-2.306,9.602 c0.535,3.381,2.392,6.41,5.162,8.421c13.17,9.569,28.71,14.626,44.946,14.626c24.456,0,47.632-11.797,61.99-31.563 c12.019-16.543,16.877-36.779,13.679-56.977C385.385,462.166,374.512,444.422,357.967,432.402z M312.913,545.096 c-6.358,0-12.559-1.173-18.372-3.444l9.891-13.613c3.063-4.215,3.29-9.858,0.575-14.306c-4.659-7.635-4.277-17.238,0.976-24.468 c4.194-5.773,10.706-9.086,17.862-9.086c1.721,0,3.439,0.201,5.104,0.599c5.072,1.206,10.364-0.753,13.429-4.969l9.893-13.611 c5.649,6.885,9.394,15.174,10.824,24.203c2.122,13.39-1.099,26.804-9.068,37.771C344.508,537.273,329.137,545.096,312.913,545.096z "/><path fill="#FFFFFF" d="M489.91,486.228c-9.52-13.103-24.89-20.925-41.111-20.925c-6.359,0-12.562,1.175-18.373,3.445l9.891,13.614 c3.063,4.215,3.29,9.857,0.575,14.306c-4.659,7.635-4.275,17.238,0.974,24.466c4.134,5.689,10.813,9.084,17.866,9.086h0.002 c1.719,0,3.436-0.201,5.101-0.599c0.993-0.238,1.998-0.352,2.989-0.352c4.07,0,7.978,1.931,10.438,5.319l9.882,13.601 C502.383,530.773,503.74,505.263,489.91,486.228z"/><path d="M448.797,439.496c-16.236,0-31.778,5.056-44.948,14.627c-2.769,2.011-4.625,5.041-5.161,8.422 c-0.537,3.38,0.294,6.835,2.305,9.602l13.917,19.155c-5.631,14.894-3.532,31.777,6.077,45.003 c8.974,12.349,23.456,19.721,38.742,19.723c0.001,0,0.001,0,0.003,0c0.723,0,1.447-0.017,2.17-0.05l13.927,19.167 c2.011,2.769,5.041,4.625,8.422,5.16c0.672,0.108,1.345,0.16,2.018,0.16c2.708,0,5.366-0.854,7.584-2.466 c34.153-24.815,41.749-72.788,16.936-106.937C496.429,451.295,473.254,439.496,448.797,439.496z M467.822,529.271 c-0.99,0-1.995,0.113-2.988,0.351c-1.665,0.396-3.382,0.599-5.101,0.599h-0.002c-7.054-0.001-13.73-3.397-17.866-9.085 c-5.251-7.228-5.633-16.831-0.975-24.467c2.715-4.447,2.488-10.09-0.574-14.305l-9.891-13.614 c5.812-2.271,12.012-3.446,18.372-3.446c16.224,0,31.593,7.823,41.112,20.926c13.83,19.033,12.473,44.546-1.766,61.963l-9.882-13.6 C475.801,531.202,471.894,529.271,467.822,529.271z"/><path fill="#FFFFFF" d="M511.51,342.768c-5.308,0-10.59,0.841-15.697,2.501c-22.376,7.272-36.271,28.707-34.992,51.167l15.99-5.196 c1.311-0.425,2.654-0.631,3.984-0.631c3.702,0,7.303,1.597,9.798,4.504c4.206,4.909,10.313,7.722,16.755,7.722 c2.301,0,4.594-0.367,6.815-1.088c8.497-2.76,14.451-10.306,15.169-19.221c0.418-5.196,3.917-9.627,8.874-11.236l16.001-5.199 C545.044,351.771,529.125,342.768,511.51,342.768z"/><path d="M511.51,316.962c-8.021,0-15.984,1.266-23.672,3.764c-40.147,13.044-62.196,56.32-49.152,96.469 c1.057,3.256,3.363,5.956,6.414,7.51c3.05,1.554,6.596,1.831,9.846,0.774l22.523-7.319c8.42,6.738,18.925,10.481,29.883,10.481 c5.012,0,9.988-0.789,14.789-2.35c15.545-5.052,27.169-17.475,31.368-32.836l22.517-7.317c3.256-1.057,5.957-3.364,7.51-6.414 c1.554-3.05,1.833-6.591,0.774-9.846C574.025,338.229,544.77,316.962,511.51,316.962z M529.335,382.531 c-0.718,8.915-6.672,16.459-15.169,19.221c-2.221,0.721-4.515,1.087-6.814,1.087c-6.441,0-12.549-2.815-16.756-7.722 c-2.494-2.907-6.095-4.504-9.798-4.504c-1.329,0-2.675,0.207-3.984,0.631l-15.989,5.196c-1.28-22.462,12.615-43.897,34.991-51.167 c5.108-1.66,10.39-2.501,15.697-2.501c17.614,0,33.533,9.001,42.7,23.326l-16.002,5.199 C533.253,372.903,529.753,377.335,529.335,382.531z"/></symbol><symbol id="new-zealand" viewBox="0 0 800 800"><title>new-zealand</title><polygon fill="#103B9B" points="24.807,237.129 24.807,190.539 94.69,237.129 "/><polygon fill="#103B9B" points="25.807,192.408 25.807,236.129 91.388,236.129 "/><polygon fill="#103B9B" points="24.807,304.807 94.69,304.807 24.807,351.396 "/><polygon fill="#103B9B" points="25.807,305.807 25.807,349.528 91.388,305.807 "/><polygon fill="#103B9B" points="240.291,153.839 321.142,153.839 240.291,207.741 "/><polygon fill="#103B9B" points="317.839,154.839 241.291,154.839 241.291,205.872 "/><polygon fill="#103B9B" points="91.761,153.839 172.613,153.839 172.613,207.741 "/><polygon fill="#103B9B" points="171.613,154.839 95.064,154.839 171.613,205.872 "/><path fill="#103B9B" d="M128.032,659.064v-1c0-6.563-5.34-11.903-11.903-11.903H24.807V399h50.6l97.206-64.805V399h67.678v-64.805 L337.497,399H399v-40.335l-80.787-53.858H399v-67.678h-80.787L399,183.271v-29.432h376.193v39.709 c0,6.563,5.34,11.903,11.903,11.903h1v27.806h-1c-6.563,0-11.903,5.34-11.903,11.903v401H167.742 c-6.563,0-11.903,5.34-11.903,11.903v1H128.032z M593.549,530.032c-13.679,0-24.807,11.128-24.807,24.807 s11.128,24.807,24.807,24.807c13.678,0,24.806-11.128,24.806-24.807S607.227,530.032,593.549,530.032z M516.129,349.387 c-13.679,0-24.807,11.128-24.807,24.806S502.45,399,516.129,399s24.807-11.128,24.807-24.807S529.808,349.387,516.129,349.387z M670.968,284.871c-13.679,0-24.807,11.128-24.807,24.806s11.128,24.807,24.807,24.807s24.807-11.128,24.807-24.807 S684.646,284.871,670.968,284.871z M593.549,220.355c-13.679,0-24.807,11.128-24.807,24.806s11.128,24.807,24.807,24.807 c13.678,0,24.806-11.128,24.806-24.807S607.227,220.355,593.549,220.355z"/><path fill="#103B9B" d="M774.193,193.548v-38.709H400v28.967l-78.484,52.323H400v16.129v37.419v16.129h-78.484L400,358.13v14.551 V400h-62.806l-95.904-63.937V400h-16.129h-37.419h-16.129v-63.937L75.709,400H54.773H25.807v245.161h90.322 c7.128,0,12.903,5.777,12.903,12.903h25.807c0-7.126,5.775-12.903,12.903-12.903h606.451v-400c0-7.126,5.775-12.903,12.903-12.903 v-25.806C779.969,206.452,774.193,200.674,774.193,193.548z M516.129,400c-14.252,0-25.807-11.554-25.807-25.807 c0-14.252,11.555-25.806,25.807-25.806s25.807,11.554,25.807,25.806C541.936,388.446,530.381,400,516.129,400z M593.549,580.646 c-14.252,0-25.807-11.555-25.807-25.807s11.555-25.807,25.807-25.807s25.806,11.555,25.806,25.807S607.801,580.646,593.549,580.646 z M593.549,270.968c-14.252,0-25.807-11.555-25.807-25.807s11.555-25.806,25.807-25.806s25.806,11.554,25.806,25.806 S607.801,270.968,593.549,270.968z M670.968,335.484c-14.252,0-25.807-11.554-25.807-25.807c0-14.252,11.555-25.806,25.807-25.806 s25.807,11.554,25.807,25.806C696.774,323.93,685.22,335.484,670.968,335.484z"/><polygon fill="#FFFFFF" points="224.161,253.258 224.161,153.839 242.291,153.839 242.291,204.003 317.536,153.839 342.079,153.839 242.291,220.372 242.291,235.129 258.407,235.129 380.343,153.839 401,153.839 401,184.341 324.818,235.129 401,235.129 401,253.258 "/><polygon fill="#FFFFFF" points="258.709,236.129 241.291,236.129 241.291,219.836 338.776,154.839 317.839,154.839 241.291,205.872 241.291,154.839 225.161,154.839 225.161,252.258 400,252.258 400,236.129 321.516,236.129 400,183.806 400,154.839 380.646,154.839 "/><polygon fill="#ED1F34" points="111.752,237.129 24.807,179.028 24.807,153.839 32.561,153.839 157.496,237.129 "/><polygon fill="#ED1F34" points="154.193,236.129 32.258,154.839 25.807,154.839 25.807,178.493 112.055,236.129 "/><polygon fill="#ED1F34" points="255.407,304.807 300.229,304.807 401,372.146 401,401.868 "/><polygon fill="#ED1F34" points="258.709,305.807 400,400 400,372.681 299.926,305.807 "/><polygon fill="#ED1F34" points="240.291,237.129 240.291,219.301 338.474,153.839 383.948,153.839 259.012,237.129 "/><polygon fill="#ED1F34" points="241.291,236.129 258.709,236.129 380.646,154.839 338.776,154.839 241.291,219.836 "/><polygon fill="#ED1F34" points="24.807,401 24.807,390.863 153.891,304.807 172.613,304.807 172.613,322.643 55.076,401 "/><polygon fill="#ED1F34" points="171.613,305.807 154.193,305.807 25.807,391.398 25.807,400 54.773,400 171.613,322.107 "/><polygon fill="#FFFFFF" points="24.807,253.258 24.807,235.129 88.085,235.129 24.807,192.943 24.807,176.622 112.358,235.129 150.891,235.129 28.955,153.839 95.367,153.839 170.613,204.003 170.613,153.839 188.742,153.839 188.742,253.258 "/><polygon fill="#FFFFFF" points="187.742,252.258 187.742,154.839 171.613,154.839 171.613,205.872 95.064,154.839 32.258,154.839 154.193,236.129 112.055,236.129 25.807,178.493 25.807,192.408 91.388,236.129 25.807,236.129 25.807,252.258 "/><polygon fill="#FFFFFF" points="336.892,401 242.291,337.932 242.291,401 224.161,401 224.161,288.677 401,288.677 401,306.807 324.818,306.807 401,357.595 401,374.552 299.623,306.807 262.012,306.807 403.303,401 "/><polygon fill="#FFFFFF" points="225.161,289.677 225.161,400 241.291,400 241.291,336.063 337.194,400 400,400 258.709,305.807 299.926,305.807 400,372.681 400,358.13 321.516,305.807 400,305.807 400,289.677 "/><polygon fill="#FFFFFF" points="170.613,401 170.613,337.932 76.012,401 51.471,401 170.613,321.572 170.613,306.807 154.496,306.807 24.807,393.267 24.807,348.993 88.085,306.807 24.807,306.807 24.807,288.677 188.742,288.677 188.742,401 "/><polygon fill="#FFFFFF" points="187.742,289.677 25.807,289.677 25.807,305.807 91.388,305.807 25.807,349.528 25.807,391.398 154.193,305.807 171.613,305.807 171.613,322.107 54.773,400 75.709,400 171.613,336.063 171.613,400 187.742,400 "/><polygon fill="#ED1F34" points="186.742,401 186.742,290.677 24.807,290.677 24.807,251.258 186.742,251.258 186.742,153.839 226.161,153.839 226.161,251.258 401,251.258 401,290.677 226.161,290.677 226.161,401 "/><polygon fill="#ED1F34" points="225.161,252.258 225.161,154.839 187.742,154.839 187.742,252.258 25.807,252.258 25.807,289.677 187.742,289.677 187.742,400 225.161,400 225.161,289.677 400,289.677 400,252.258 "/><circle fill="#ED1F34" cx="593.549" cy="245.161" r="25.806"/><circle fill="#ED1F34" cx="593.549" cy="554.839" r="25.807"/><circle fill="#ED1F34" cx="670.968" cy="309.677" r="25.806"/><circle fill="#ED1F34" cx="516.129" cy="374.194" r="25.806"/><path d="M774.193,245.161v400H167.742c-7.128,0-12.903,5.777-12.903,12.903s5.775,12.903,12.903,12.903h619.354 c7.128,0,12.903-5.777,12.903-12.903V245.161c0-7.126-5.775-12.903-12.903-12.903S774.193,238.035,774.193,245.161z"/><path d="M116.129,645.161H25.807V400v-8.602v-41.87v-43.721v-16.129v-37.419v-16.129v-43.721v-13.917v-23.652h6.451h62.806h76.549 h16.129h37.419h16.129h76.548h20.938h41.869H400h374.193v38.709c0,7.126,5.775,12.903,12.903,12.903S800,200.674,800,193.548 v-51.613c0-7.126-5.775-12.903-12.903-12.903H12.903C5.775,129.032,0,134.81,0,141.936v516.129c0,7.126,5.775,12.903,12.903,12.903 h103.226c7.128,0,12.903-5.777,12.903-12.903S123.257,645.161,116.129,645.161z"/></symbol></svg>